<?xml version="1.0" encoding="utf-8"?>
<svg xmlns="http://www.w3.org/2000/svg" viewBox="0 0 24 24" width="24" height="24">
  <path fill="#e74c3c" d="M12,2C6.477,2,2,6.477,2,12s4.477,10,10,10s10-4.477,10-10S17.523,2,12,2z M12,20c-4.418,0-8-3.582-8-8
    s3.582-8,8-8s8,3.582,8,8S16.418,20,12,20z"/>
  <path fill="#e74c3c" d="M12,6c-3.314,0-6,2.686-6,6s2.686,6,6,6s6-2.686,6-6S15.314,6,12,6z M12,16c-2.209,0-4-1.791-4-4
    s1.791-4,4-4s4,1.791,4,4S14.209,16,12,16z"/>
  <circle fill="#e74c3c" cx="12" cy="12" r="2"/>
</svg>
