<svg xmlns="http://www.w3.org/2000/svg" xmlns:xlink="http://www.w3.org/1999/xlink" viewBox="0 0 131 81" fill="#fff" fill-rule="evenodd" stroke="#000" stroke-linecap="round" stroke-linejoin="round"><use xlink:href="#A" x=".5" y=".5"/><symbol id="A" overflow="visible"><path d="M119.061 41.168C125.672 44.341 130 51.522 130 59.736c0 9.493-5.77 17.51-13.632 19.625l-2.693.639H19.811C8.872 80 0 69.868 0 57.621s8.872-22.379 19.811-22.379c.817 0 1.443 0 2.26.221 3.294-5.902 8.872-9.296 15.075-9.296 1.659 0 3.294.221 4.953.836v-.836C42.099 11.608 52.414 0 65.204 0c8.872 0 17.119 6.124 20.845 15.198 3.294-2.115 7.021-3.369 10.94-3.369 12.382 0 22.288 11.411 22.288 25.33.192 1.279 0 2.533-.216 4.009z" fill="#00188f" stroke="none"/></symbol></svg>